<?xml version="1.0" encoding="UTF-8"?>
<svg id="Layer_2" data-name="Layer 2" xmlns="http://www.w3.org/2000/svg" xmlns:xlink="http://www.w3.org/1999/xlink" viewBox="0 0 626 615">
  <defs>
    <style>
      .cls-1 {
        filter: url(#drop-shadow-4);
      }

      .cls-1, .cls-2, .cls-3, .cls-4, .cls-5, .cls-6, .cls-7, .cls-8, .cls-9 {
        fill: none;
        stroke: #231f20;
        stroke-miterlimit: 10;
        stroke-width: 12px;
      }

      .cls-2 {
        filter: url(#drop-shadow-6);
      }

      .cls-3 {
        filter: url(#drop-shadow-8);
      }

      .cls-4 {
        filter: url(#drop-shadow-7);
      }

      .cls-5 {
        filter: url(#drop-shadow-5);
      }

      .cls-6 {
        filter: url(#drop-shadow-1);
      }

      .cls-7 {
        filter: url(#drop-shadow-2);
      }

      .cls-8 {
        filter: url(#drop-shadow-3);
      }

      .cls-9 {
        filter: url(#drop-shadow-9);
      }
    </style>
    <filter id="drop-shadow-1" x="46" y="59" width="535" height="504" filterUnits="userSpaceOnUse">
      <feOffset dx="3" dy="6"/>
      <feGaussianBlur result="blur" stdDeviation="5"/>
      <feFlood flood-color="#000" flood-opacity="0"/>
      <feComposite in2="blur" operator="in"/>
      <feComposite in="SourceGraphic"/>
    </filter>
    <filter id="drop-shadow-2" x="384" y="113" width="116" height="427" filterUnits="userSpaceOnUse">
      <feOffset dx="3" dy="6"/>
      <feGaussianBlur result="blur-2" stdDeviation="5"/>
      <feFlood flood-color="#000" flood-opacity="0"/>
      <feComposite in2="blur-2" operator="in"/>
      <feComposite in="SourceGraphic"/>
    </filter>
    <filter id="drop-shadow-3" x="298" y="101" width="123" height="423" filterUnits="userSpaceOnUse">
      <feOffset dx="3" dy="6"/>
      <feGaussianBlur result="blur-3" stdDeviation="5"/>
      <feFlood flood-color="#000" flood-opacity="0"/>
      <feComposite in2="blur-3" operator="in"/>
      <feComposite in="SourceGraphic"/>
    </filter>
    <filter id="drop-shadow-4" x="213" y="88" width="129" height="420" filterUnits="userSpaceOnUse">
      <feOffset dx="3" dy="6"/>
      <feGaussianBlur result="blur-4" stdDeviation="5"/>
      <feFlood flood-color="#000" flood-opacity="0"/>
      <feComposite in2="blur-4" operator="in"/>
      <feComposite in="SourceGraphic"/>
    </filter>
    <filter id="drop-shadow-5" x="129" y="74" width="133" height="417" filterUnits="userSpaceOnUse">
      <feOffset dx="3" dy="6"/>
      <feGaussianBlur result="blur-5" stdDeviation="5"/>
      <feFlood flood-color="#000" flood-opacity="0"/>
      <feComposite in2="blur-5" operator="in"/>
      <feComposite in="SourceGraphic"/>
    </filter>
    <filter id="drop-shadow-6" x="133" y="110" width="430" height="128" filterUnits="userSpaceOnUse">
      <feOffset dx="3" dy="6"/>
      <feGaussianBlur result="blur-6" stdDeviation="5"/>
      <feFlood flood-color="#000" flood-opacity="0"/>
      <feComposite in2="blur-6" operator="in"/>
      <feComposite in="SourceGraphic"/>
    </filter>
    <filter id="drop-shadow-7" x="113" y="193" width="438" height="122" filterUnits="userSpaceOnUse">
      <feOffset dx="3" dy="6"/>
      <feGaussianBlur result="blur-7" stdDeviation="5"/>
      <feFlood flood-color="#000" flood-opacity="0"/>
      <feComposite in2="blur-7" operator="in"/>
      <feComposite in="SourceGraphic"/>
    </filter>
    <filter id="drop-shadow-8" x="93" y="275" width="446" height="120" filterUnits="userSpaceOnUse">
      <feOffset dx="3" dy="6"/>
      <feGaussianBlur result="blur-8" stdDeviation="5"/>
      <feFlood flood-color="#000" flood-opacity="0"/>
      <feComposite in2="blur-8" operator="in"/>
      <feComposite in="SourceGraphic"/>
    </filter>
    <filter id="drop-shadow-9" x="73" y="354" width="453" height="121" filterUnits="userSpaceOnUse">
      <feOffset dx="3" dy="6"/>
      <feGaussianBlur result="blur-9" stdDeviation="5"/>
      <feFlood flood-color="#000" flood-opacity="0"/>
      <feComposite in2="blur-9" operator="in"/>
      <feComposite in="SourceGraphic"/>
    </filter>
  </defs>
  <!-- White background for favicon visibility -->
  <rect width="626" height="615" fill="#ffffff"/>
  <path class="cls-6" d="M164.62,75.21c14.52,1.38,124.14,18.69,171.47,27.42,18.9,3.49,23.15,3.94,106.97,16.47,29.41,4.4,68.59,10.73,112.53,17.39-.03.18-.64,3.97-.67,4.14-5.98,37.23-11.45,71.42-16.38,102.48-7.57,47.67-12.47,79.02-15.38,97.48-6.98,44.27-17.4,109.08-31.77,194.1l-425.29-81.54c10.54-44.85,93.16-361.9,98.51-377.95Z"/>
  <path class="cls-7" d="M475.35,124.05c-10.26,36.6-38.18,243.33-56.57,289.37-1.03,2.58-4.31,30.75-6.14,43.1-3.85,26.04-7.44,47.25-9.84,61.19"/>
  <path class="cls-8" d="M396.4,112.14c-6.63,26.68-13.88,94.27-34.49,122.82-10.33,14.31-10.63,69.12-19.52,126.54-5.13,33.16-13.34,81.18-26.21,139.59"/>
  <path class="cls-1" d="M317.87,99.18c-16.92,64.42-14.42,90.33-35.2,114.3-16.39,18.91-17.52,32.24-21.94,76.08-5.88,58.29-12.69,109.39-29.09,195.33"/>
  <path class="cls-5" d="M238,86.29c-1.35,2.95-14.21,17.12-21.52,33.6-8.66,19.51-4.47,66.05-6.52,84.04-2.73,23.94-11.61,56.66-13.46,62.41-11.56,35.94-19.5,41.27-30.21,67.16-6.56,15.88-7.16,23.74-8.98,63.89-1.32,29.12-6.77,53.32-9.53,71.43"/>
  <path class="cls-2" d="M543.73,210.77c-45.36-6.43-152.24-27.29-176.34-31.34-45.77-7.69-64.68-12.91-108.22-34.51-13.29-6.59-34.91-19.77-52.9-19.24-12,.35-37.8,11.64-59.26,15.58"/>
  <path class="cls-4" d="M126.89,218.02c28.11,4.38,58.83,14.4,104.21,10.68,18.15-1.49,54.81-24.89,90.03-19.48,39.03,6,67.66,58.55,210.5,78.05"/>
  <path class="cls-3" d="M518.81,367.96c-29.2-7.16-73.76-11.86-111.68-25.16-54.92-19.26-62.27-47.97-106.42-51.87-25.34-2.24-32.77,5.16-67.83,10.24-28.77,4.17-71.17,6.06-125.72-6.84"/>
  <path class="cls-9" d="M86.75,372.43c31.47,4.56,65.29-6.09,90.04-2.28,28.48,4.39,44.57,15.64,78.76,27.02,21.92,7.3,39.13,10.46,50.62,13.09,35.24,8.08,52.86,12.12,66.45,11.74,37.69-1.06,42.18-16.34,64.2-9.86,23.41,6.89,22.09,14.35,48.44,28.64,8.22,4.46,15.94,5.9,20.62,7.19"/>
</svg>